<svg xmlns:xlink="http://www.w3.org/1999/xlink" xmlns="http://www.w3.org/2000/svg" width="429.00000000000006" height="106.82270916334662" viewBox="0 0 369.89473684210526 92.10526315789473" class="looka-1j8o68f"><defs id="SvgjsDefs1322"></defs><g id="SvgjsG1323" featurekey="JKiIdh-0" transform="matrix(1.151315789473684,0,0,1.151315789473684,-11.51315789473684,-11.51315789473684)" fill="#313133"><path xmlns="http://www.w3.org/2000/svg" d="M35,65.833c0-8.587,3.535-16.36,9.219-21.956c-3.063-1.406-6.458-2.21-10.052-2.21C20.82,41.667,10,52.487,10,65.833  C10,79.18,20.82,90,34.167,90c3.594,0,6.988-0.804,10.052-2.21C38.535,82.194,35,74.421,35,65.833z" fill="#313133"></path><path xmlns="http://www.w3.org/2000/svg" d="M65.833,65c-8.587,0-16.36-3.535-21.956-9.222c-1.406,3.066-2.21,6.461-2.21,10.055C41.667,79.18,52.487,90,65.833,90  C79.18,90,90,79.18,90,65.833c0-3.594-0.804-6.988-2.21-10.055C82.194,61.465,74.421,65,65.833,65z" fill="#313133"></path><path xmlns="http://www.w3.org/2000/svg" d="M65.833,10c-3.594,0-6.988,0.804-10.055,2.21C61.465,17.806,65,25.579,65,34.167c0,8.587-3.535,16.36-9.222,21.956  c3.066,1.406,6.461,2.21,10.055,2.21C79.18,58.333,90,47.513,90,34.167C90,20.82,79.18,10,65.833,10z" fill="#313133"></path><path xmlns="http://www.w3.org/2000/svg" d="M34.167,35c8.587,0,16.36,3.535,21.956,9.219c1.406-3.063,2.21-6.458,2.21-10.052C58.333,20.82,47.513,10,34.167,10  C20.82,10,10,20.82,10,34.167c0,3.594,0.804,6.988,2.21,10.052C17.806,38.535,25.579,35,34.167,35z" fill="#313133"></path></g><g id="SvgjsG1324" featurekey="A7DQL5-0" transform="matrix(3.2919932205481808,0,0,3.2919932205481808,110.74904219945296,2.2604452221379674)" fill="#313133"><path d="M8.42 16.24 l2.16 1.38 c-0.98 1.58 -2.54 2.62 -4.78 2.62 c-3.18 0 -5.42 -2.36 -5.42 -5.34 s2.24 -5.36 5.42 -5.36 c2.26 0 3.84 1.08 4.8 2.68 l-2.18 1.36 c-0.52 -0.86 -1.26 -1.5 -2.52 -1.5 c-1.62 0 -2.72 1.14 -2.72 2.82 s1.1 2.84 2.72 2.84 c1.26 0 2 -0.64 2.52 -1.5 z M16.66 12.16 c-1.52 0 -2.7 1.24 -2.7 2.76 c0 1.54 1.18 2.76 2.7 2.76 c1.6 0 2.8 -1.22 2.8 -2.76 c0 -1.52 -1.24 -2.76 -2.8 -2.76 z M19.42 20 l0 -0.76 c-0.72 0.56 -1.84 0.9 -3 0.9 c-2.8 0 -5.18 -2.26 -5.18 -5.22 s2.38 -5.28 5.18 -5.28 c1.16 0 2.28 0.36 3 0.92 l0 -0.82 l2.78 0 l0 10.26 l-2.78 0 z M28.56 17.68 c1.6 0 2.8 -1.22 2.8 -2.76 c0 -1.52 -1.24 -2.76 -2.8 -2.76 c-1.52 0 -2.7 1.24 -2.7 2.76 c0 1.54 1.18 2.76 2.7 2.76 z M31.32 20 l0 -0.76 c-0.72 0.56 -1.84 0.9 -3 0.9 c-2.8 0 -5.18 -2.26 -5.18 -5.22 s2.38 -5.28 5.18 -5.28 c1.16 0 2.28 0.36 3 0.92 l0 -4.26 l2.78 0 l0 13.7 l-2.78 0 z M45.3 17.8 c-1 1.5 -2.58 2.44 -4.86 2.44 c-3.28 0 -5.4 -2.3 -5.4 -5.34 c0 -2.96 2.2 -5.36 5.42 -5.36 c3.24 0 5.2 2.24 5.2 5.22 c0 0.4 -0.04 0.92 -0.04 0.98 l-7.84 0 c0.3 1.3 1.28 2.14 2.72 2.14 c1.24 0 2.14 -0.54 2.72 -1.36 z M40.44 11.82 c-1.3 0 -2.2 0.7 -2.56 1.86 l4.98 0 c-0.3 -1.24 -1.3 -1.86 -2.42 -1.86 z M49.36 9.74 l0 1.04 c0.5 -0.58 1.56 -1.22 2.98 -1.22 c2.4 0 3.96 1.66 3.96 4.14 l0 6.3 l-2.76 0 l0 -5.82 c0 -1.22 -0.7 -2.06 -1.88 -2.06 c-1.36 0 -2.26 0.86 -2.26 2.28 l0 5.6 l-2.78 0 l0 -10.26 l2.74 0 z M65.28 16.24 l2.16 1.38 c-0.98 1.58 -2.54 2.62 -4.78 2.62 c-3.18 0 -5.42 -2.36 -5.42 -5.34 s2.24 -5.36 5.42 -5.36 c2.26 0 3.84 1.08 4.8 2.68 l-2.18 1.36 c-0.52 -0.86 -1.26 -1.5 -2.52 -1.5 c-1.62 0 -2.72 1.14 -2.72 2.82 s1.1 2.84 2.72 2.84 c1.26 0 2 -0.64 2.52 -1.5 z M78.36 17.8 c-1 1.5 -2.58 2.44 -4.86 2.44 c-3.28 0 -5.4 -2.3 -5.4 -5.34 c0 -2.96 2.2 -5.36 5.42 -5.36 c3.24 0 5.2 2.24 5.2 5.22 c0 0.4 -0.04 0.92 -0.04 0.98 l-7.84 0 c0.3 1.3 1.28 2.14 2.72 2.14 c1.24 0 2.14 -0.54 2.72 -1.36 z M73.5 11.82 c-1.3 0 -2.2 0.7 -2.56 1.86 l4.98 0 c-0.3 -1.24 -1.3 -1.86 -2.42 -1.86 z" fill="#313133"></path></g></svg>